<svg id="Layer_1" data-name="Layer 1" xmlns="http://www.w3.org/2000/svg" viewBox="0 0 193.69 50.77"><defs><style>.cls-1{fill:#b21a81;}.cls-2{fill:#020201;}.cls-3{fill:#2f2f2f;}.cls-4{fill:#fff;}.cls-5{fill:#3c3e3d;}</style></defs><path class="cls-1" d="M65.85,21.18a14.11,14.11,0,0,1-7,1.78c-7,0-10.44-4.54-10.44-9.14S51.91,4.56,59.2,4.56a12.87,12.87,0,0,1,6.44,1.58v4.13a10.66,10.66,0,0,0-6.13-1.95c-3.73,0-6.49,2.16-6.49,5.44,0,3.53,3,5.5,6.36,5.5A10.48,10.48,0,0,0,64.14,18l1.71-1Z"/><path class="cls-1" d="M81.39,21.86A7.84,7.84,0,0,1,77.81,23c-1.78,0-2-.86-2.15-1.34a7,7,0,0,1-4,1.34,3.21,3.21,0,0,1-3.39-3.18c0-2.42,2.47-3.28,3.37-3.6.6-.21,3.28-1.08,3.83-1.23,0-.64,0-2.06-2.07-2.06A6.56,6.56,0,0,0,68.9,15V11.84a9.82,9.82,0,0,1,5.29-1.47c.6,0,3.68,0,4.75,2a3.92,3.92,0,0,1,.37,2.21v4.79c0,.42,0,1,.61,1a3.42,3.42,0,0,0,1.47-.58Zm-5.92-5c-.26.1-1.63.63-1.92.76s-1.41.68-1.41,1.76a1.25,1.25,0,0,0,1.2,1.29,3.23,3.23,0,0,0,2.13-.9Z"/><path class="cls-1" d="M86.81,12.34a4.92,4.92,0,0,1,3.94-2,4.2,4.2,0,0,1,4,2.37,5.9,5.9,0,0,1,.48,2.84v7.15H91.36V15.89a4.48,4.48,0,0,0-.19-1.73A1.73,1.73,0,0,0,89.46,13c-1.52,0-2.49,1.63-2.65,1.89v7.81H83V10.61h3.81Z"/><path class="cls-1" d="M108.92,22.15a11.63,11.63,0,0,1-4.1.81c-3.94,0-7-2.18-7-6.25,0-4.26,3.5-6.34,6.86-6.34a12.51,12.51,0,0,1,4.08.79V14a7.06,7.06,0,0,0-3.1-.82,3.4,3.4,0,0,0-3.76,3.5,3.39,3.39,0,0,0,3.55,3.58,10.07,10.07,0,0,0,3.49-.84Z"/><path class="cls-1" d="M123.31,21.36a9.43,9.43,0,0,1-5.52,1.6c-5.37,0-6.92-3.68-6.92-6.28a6.21,6.21,0,0,1,6.42-6.31c2.52,0,6.31,1.5,6.23,6.92h-8.7c.15,2.2,1.65,3.31,4,3.31a6.75,6.75,0,0,0,4.47-1.68Zm-3.16-6.07a2.63,2.63,0,0,0-5.26,0Z"/><path class="cls-1" d="M130.17,14.08c1.29-2.71,2.55-3.71,3.92-3.71a4.3,4.3,0,0,1,2.53,1.11l-1.06,3.36a4.22,4.22,0,0,0-2.23-.89c-1.42,0-2.16,1.18-2.84,2.65-.05.13-.26.79-.32.9v5.23h-3.81V10.61h3.81Z"/><path class="cls-1" d="M60.87,41.32a10.23,10.23,0,0,1-5.14,1.3c-5.08,0-7.62-3.31-7.62-6.67S50.7,29.2,56,29.2a9.47,9.47,0,0,1,4.7,1.15v3a7.84,7.84,0,0,0-4.47-1.42c-2.73,0-4.74,1.57-4.74,4,0,2.57,2.19,4,4.64,4a7.65,7.65,0,0,0,3.47-.9l1.25-.71Z"/><path class="cls-1" d="M75.72,33.11a11.72,11.72,0,0,0-4.87-1.19,5.42,5.42,0,0,0-3,.75A3.84,3.84,0,0,0,66.07,36c0,2.47,2.07,3.87,4.32,3.87a6.5,6.5,0,0,0,2.34-.46V37.91H70.85V35.47H76v5.39a9,9,0,0,1-5.6,1.76c-4.2,0-7.76-2.49-7.76-6.71S66,29.2,70.58,29.2a12.86,12.86,0,0,1,5.14,1.07Z"/><path class="cls-1" d="M87.63,32.9a10,10,0,0,0-4.2-1.27c-1.92,0-2,.94-2,1.08,0,.78,1.28,1.24,3.16,1.92,1.65.59,3.61,1.59,3.61,4.12,0,3-3.17,3.87-5.12,3.87a10.07,10.07,0,0,1-4.63-1.26V38.54A8.46,8.46,0,0,0,83,40.17c.42,0,2,0,2-1.19,0-.86-.75-1.13-2.48-1.73-1.88-.65-4.26-1.57-4.26-4.33,0-2,1.67-3.72,5-3.72a10.38,10.38,0,0,1,4.43,1Z"/><path class="cls-1" d="M94.67,39.29h-5V36.74h5Z"/><path class="cls-1" d="M105.05,42.45H96.4v-.38c.08-.08,2-2.65,2.9-3.88s2.18-3.14,2.18-4.79a1.78,1.78,0,0,0-1.76-1.84,5.11,5.11,0,0,0-3.15,1.63V30.44a6.24,6.24,0,0,1,3.67-1.24c3.12,0,4.14,1.95,4.14,3.7,0,.86-.13,1.76-1.59,4.16-.63,1-1.73,2.42-2,2.73h4.22Z"/><path class="cls-1" d="M111.31,42.62a3.83,3.83,0,0,1-3.17-1.55c-1.23-1.59-1.32-4-1.32-5.16,0-5.54,2.68-6.71,4.45-6.71,1.42,0,4.41.84,4.41,6.65C115.68,41.09,113.38,42.62,111.31,42.62Zm0-11c-1.23,0-1.42,1.86-1.42,4.4,0,1.34,0,4.14,1.42,4.14.82,0,1.11-.92,1.23-1.56a23,23,0,0,0,.17-2.85C112.67,32.57,112.17,31.65,111.27,31.65Z"/><path class="cls-1" d="M126.23,42.45h-8.65v-.38c.08-.08,2-2.65,2.9-3.88s2.18-3.14,2.18-4.79a1.78,1.78,0,0,0-1.76-1.84,5.11,5.11,0,0,0-3.15,1.63V30.44a6.24,6.24,0,0,1,3.67-1.24c3.12,0,4.14,1.95,4.14,3.7,0,.86-.13,1.76-1.59,4.16-.64,1-1.73,2.42-2,2.73h4.22Z"/><path class="cls-1" d="M132.22,34.15A2.17,2.17,0,0,1,133,34a3.85,3.85,0,0,1,3.67,4.13A4.34,4.34,0,1,1,128,38a9.83,9.83,0,0,1,1.78-5.12L132,29.2h3.22Zm.13,2.16c-.8,0-1.42.66-1.42,2s.67,1.9,1.44,1.9c1,0,1.46-1,1.46-2S133.33,36.31,132.35,36.31Z"/><path class="cls-2" d="M152.86,8.92v8a3.07,3.07,0,0,1-.9,2.33,3.65,3.65,0,0,1-4.71,0,3.07,3.07,0,0,1-.9-2.33h1.83a1.81,1.81,0,0,0,.37,1.16,1.51,1.51,0,0,0,2.12,0,1.76,1.76,0,0,0,.37-1.15v-8Z"/><path class="cls-2" d="M163.72,11.21V20h-1.81v-1a2.93,2.93,0,0,1-1.12.85,3.65,3.65,0,0,1-1.47.31,4,4,0,0,1-1.85-.43,3.13,3.13,0,0,1-1.28-1.27,4.16,4.16,0,0,1-.47-2V11.21h1.79v4.87a2.56,2.56,0,0,0,.59,1.81,2.08,2.08,0,0,0,1.6.62,2.13,2.13,0,0,0,1.62-.62,2.56,2.56,0,0,0,.59-1.81V11.21Z"/><path class="cls-2" d="M167.91,8.21V20H166.1V8.21Z"/><path class="cls-2" d="M178.17,11.21,172.8,24.07h-1.87l1.78-4.25-3.45-8.61h2l2.46,6.67,2.56-6.67Z"/><path class="cls-2" d="M147.61,39.3c1-.88,1.81-1.6,2.4-2.17a9.21,9.21,0,0,0,1.47-1.77,3.41,3.41,0,0,0,.59-1.84,2.25,2.25,0,0,0-.45-1.49,1.78,1.78,0,0,0-1.43-.54,1.85,1.85,0,0,0-1.45.59,2.51,2.51,0,0,0-.55,1.6h-1.74a3.72,3.72,0,0,1,1.08-2.77,3.77,3.77,0,0,1,2.65-1,3.72,3.72,0,0,1,2.71.95,3.39,3.39,0,0,1,1,2.54,4.47,4.47,0,0,1-.58,2.2,8.66,8.66,0,0,1-1.38,1.89c-.53.55-1.21,1.2-2,1.93l-.71.63h5V41.6h-7.72V40.28Z"/><path class="cls-2" d="M156.87,30.74a4.14,4.14,0,0,1,2.66-.82,4.39,4.39,0,0,1,1.92.39,2.82,2.82,0,0,1,1.64,2.62,2.75,2.75,0,0,1-.53,1.69,2.55,2.55,0,0,1-1.25.93v.07a2.64,2.64,0,0,1,1.46,1,3.27,3.27,0,0,1,.52,1.92,3.2,3.2,0,0,1-.43,1.67,2.91,2.91,0,0,1-1.27,1.15,4.45,4.45,0,0,1-2,.42,4.36,4.36,0,0,1-2.82-.88,3.24,3.24,0,0,1-1.18-2.53h1.74a2,2,0,0,0,.65,1.37,2.27,2.27,0,0,0,1.59.53,2,2,0,0,0,1.49-.53,1.86,1.86,0,0,0,.53-1.37,1.76,1.76,0,0,0-.71-1.58,4,4,0,0,0-2.17-.47h-.41V34.87h.43a3.82,3.82,0,0,0,2-.43,1.41,1.41,0,0,0,.68-1.3,1.59,1.59,0,0,0-.5-1.22,2,2,0,0,0-1.39-.45,1.94,1.94,0,0,0-1.38.45A1.84,1.84,0,0,0,157.5,33h-1.76A3,3,0,0,1,156.87,30.74Z"/><path class="cls-2" d="M172.15,35.25v1.52h-6.52V35.25Z"/><path class="cls-2" d="M175.49,39.3c1-.88,1.81-1.6,2.4-2.17a9.21,9.21,0,0,0,1.47-1.77,3.41,3.41,0,0,0,.59-1.84A2.25,2.25,0,0,0,179.5,32a1.78,1.78,0,0,0-1.43-.54,1.85,1.85,0,0,0-1.45.59,2.51,2.51,0,0,0-.55,1.6h-1.74a3.72,3.72,0,0,1,1.08-2.77,3.77,3.77,0,0,1,2.65-1,3.72,3.72,0,0,1,2.71.95,3.39,3.39,0,0,1,1,2.54,4.47,4.47,0,0,1-.58,2.2,8.66,8.66,0,0,1-1.38,1.89c-.53.55-1.21,1.2-2,1.93l-.71.63h5V41.6h-7.72V40.28Z"/><path class="cls-2" d="M183.42,39.35V38l5.34-7.65H191v7.44h1.48v1.58H191v2.41h-1.78V39.35Zm5.83-7.18-3.75,5.6h3.75Z"/><path class="cls-3" d="M142.19,8.48c.16,2.82.24,5.63.31,8.45s.06,5.63.09,8.45,0,5.63-.09,8.45-.14,5.63-.31,8.45c-.17-2.82-.25-5.64-.31-8.45s-.06-5.63-.1-8.45,0-5.63.1-8.45S142,11.3,142.19,8.48Z"/><path class="cls-1" d="M21.11,33.31c-2.35,0-2.95,1.12-1.74,3.25a2.38,2.38,0,0,1-.9,3.51,2.28,2.28,0,0,1-3.21-1,2.25,2.25,0,0,1,1.18-3.38,2,2,0,0,0,1.37-2.61,3.4,3.4,0,0,0-3-1.78,2.05,2.05,0,0,0-1.64,2.47,2.21,2.21,0,0,1-2.29,2.75,2.28,2.28,0,0,1-2.46-2.44,2.21,2.21,0,0,1,2.74-2.31,2.07,2.07,0,0,0,2.49-1.6,3.42,3.42,0,0,0-1.76-3A2.05,2.05,0,0,0,9.3,28.58a2.28,2.28,0,0,1-3.38,1.23A2.39,2.39,0,0,1,5,26.44a2.32,2.32,0,0,1,3.54-.63,2,2,0,0,0,2.94-.17,3.39,3.39,0,0,0,0-3.48,2.07,2.07,0,0,0-3,0A2.27,2.27,0,0,1,5,21.37a2.26,2.26,0,0,1,.83-3.23,2.25,2.25,0,0,1,3.43,1.05c.57,1.44,1.84,1.89,2.74,1.45a3.35,3.35,0,0,0,1.69-3,2.13,2.13,0,0,0-2.56-1.54,2.24,2.24,0,0,1-2.67-2.39,2.25,2.25,0,0,1,2.35-2.36A2.22,2.22,0,0,1,13.21,14a2.1,2.1,0,0,0,1.72,2.59,3.71,3.71,0,0,0,2.84-1.71c.48-.93,0-2.16-1.43-2.73a2.18,2.18,0,0,1-1.12-3.26,2.35,2.35,0,0,1,3.34-1c1.3.83,1.76,2.12.81,3.34s-.83,2.42,0,3.13a3.38,3.38,0,0,0,3.35.09,1.82,1.82,0,0,0,.45-2.71,2.59,2.59,0,0,1-.63-2.34,2.42,2.42,0,0,1,4.71,0,2.25,2.25,0,0,1-1.16,2.66c-.6.35-1.42.39-1.5,1.33,0,.6-.77,1.4,0,1.76,1,.47,1.84,1.8,3,1.31A2.05,2.05,0,0,0,29,14.19c-.25-1.83.76-2.9,2.34-2.87a2.24,2.24,0,0,1,2.4,2.31A2.3,2.3,0,0,1,31,16.05a2.07,2.07,0,0,0-2.38,1.53,3.41,3.41,0,0,0,1.68,3.05,2,2,0,0,0,2.64-1.28,2.31,2.31,0,0,1,3.36-1.3,2.41,2.41,0,0,1,1,3.35,2.35,2.35,0,0,1-3.68.58,2,2,0,0,0-2.82.18,3.56,3.56,0,0,0,0,3.52,2,2,0,0,0,2.79.25c1.49-1.06,2.9-.78,3.7.5a2.4,2.4,0,0,1-.89,3.38c-1.31.74-2.74.27-3.48-1.39a1.94,1.94,0,0,0-2.52-1.18,3.42,3.42,0,0,0-1.74,3,2,2,0,0,0,2.31,1.59c1.83-.16,2.9.84,2.9,2.36a2.35,2.35,0,0,1-2.54,2.38c-1.54-.07-2.44-1.11-2.2-3,.15-1.25-.77-1.57-1.34-2.16s-1.06.17-1.51.43c-2.57,1.48-2.55,2.31,0,4A2.23,2.23,0,0,1,27,39.12a2.2,2.2,0,0,1-3.19.93,2.3,2.3,0,0,1-1.09-3.16,2.17,2.17,0,0,1,.19-.33C24.08,34.4,23.49,33.31,21.11,33.31Z"/><path class="cls-4" d="M26.46,23.87a5.4,5.4,0,0,1-5.31,5.4A5.33,5.33,0,0,1,21,18.61,5.43,5.43,0,0,1,26.46,23.87Z"/><path class="cls-1" d="M21.13,26.67a2.73,2.73,0,1,1,0-5.45,2.73,2.73,0,1,1,0,5.45Z"/><circle class="cls-5" cx="4.85" cy="14.55" r="1.73"/><circle class="cls-5" cx="2.45" cy="23.96" r="1.73"/><circle class="cls-5" cx="5.08" cy="33.31" r="1.73"/><circle class="cls-5" cx="12.05" cy="40.08" r="1.73"/><circle class="cls-5" cx="21.47" cy="42.44" r="1.73"/><circle class="cls-5" cx="30.81" cy="39.77" r="1.73"/><circle class="cls-5" cx="37.55" cy="32.78" r="1.73"/><circle class="cls-5" cx="39.88" cy="23.35" r="1.73"/><circle class="cls-5" cx="37.17" cy="14.02" r="1.73"/><circle class="cls-5" cx="30.15" cy="7.31" r="1.73"/><circle class="cls-5" cx="20.71" cy="5.02" r="1.73"/><circle class="cls-5" cx="11.39" cy="7.77" r="1.73"/><rect class="cls-1" x="22.65" y="22.28" width="4.44" height="2.81"/></svg>