<svg id="Layer_1" data-name="Layer 1" xmlns="http://www.w3.org/2000/svg" viewBox="0 0 193.69 50.77"><defs><style>.cls-1{fill:#971860;}.cls-2{fill:#020201;}.cls-3{fill:#2f2f2f;}.cls-4{fill:#b21a81;}.cls-5{fill:#fff;}.cls-6{fill:#3c3e3d;}</style></defs><path class="cls-1" d="M56.09,20.44c-4.81,0-7.93-3.49-7.93-7.12,0-3.24,2.69-7.15,8-7.15,4.91,0,8,3.52,8,7.15C64.12,16.54,61.49,20.44,56.09,20.44Zm0-11.32a4,4,0,0,0-4.37,4.26,4.39,4.39,0,0,0,8.77,0A4.05,4.05,0,0,0,56.13,9.12Z"/><path class="cls-1" d="M69.05,12.2a3.81,3.81,0,0,1,3.06-1.53,3.25,3.25,0,0,1,3.07,1.84,4.55,4.55,0,0,1,.37,2.2v5.54h-3V15a3.63,3.63,0,0,0-.14-1.34,1.34,1.34,0,0,0-1.32-.88c-1.19,0-1.94,1.26-2.06,1.47v6.05h-3V10.86h3Z"/><path class="cls-1" d="M86.19,19.8a8.9,8.9,0,0,1-3.18.64c-3.06,0-5.44-1.7-5.44-4.86s2.71-4.91,5.32-4.91a10,10,0,0,1,3.16.61v2.21a5.46,5.46,0,0,0-2.41-.64,2.63,2.63,0,0,0-2.91,2.71,2.63,2.63,0,0,0,2.75,2.78,7.74,7.74,0,0,0,2.71-.66Z"/><path class="cls-1" d="M93,20.44c-2.88,0-5.32-1.78-5.32-4.83s2.38-4.94,5.34-4.94c2.14,0,5.24,1.2,5.24,4.91S95.18,20.44,93,20.44Zm-.09-8c-2.05,0-2.05,2.32-2.05,3.18,0,.57,0,2.93,2.14,2.93s2.1-2.44,2.1-3.2S95.12,12.49,92.93,12.49Z"/><path class="cls-1" d="M103.27,20.25h-3V6.35h3Z"/><path class="cls-1" d="M110.6,20.44c-2.87,0-5.32-1.78-5.32-4.83s2.39-4.94,5.34-4.94c2.14,0,5.24,1.2,5.24,4.91S112.76,20.44,110.6,20.44Zm-.08-8c-2.06,0-2.06,2.32-2.06,3.18,0,.57,0,2.93,2.14,2.93s2.1-2.44,2.1-3.2S112.7,12.49,110.52,12.49Z"/><path class="cls-1" d="M126.83,12.81h-1.37a2.69,2.69,0,0,1,.47,1.59,3.09,3.09,0,0,1-2.59,3,7.35,7.35,0,0,1-1.71.22c-.77.06-.92.47-.92.64,0,.48.72.57,2.12.67s3.65.59,3.65,2.89a2.89,2.89,0,0,1-1.91,2.65,6.72,6.72,0,0,1-2.92.47,9.78,9.78,0,0,1-3-.36,2.69,2.69,0,0,1-2.06-2.37c0-.79.45-1.83,2.53-2.36-.65-.21-1.16-.58-1.16-1.25,0-1,1.12-1.26,1.73-1.4A3.07,3.07,0,0,1,117,14.26a3.14,3.14,0,0,1,1.84-2.89,6,6,0,0,1,2.73-.51h5.22ZM121.61,21c-.37,0-2.3,0-2.3,1.14,0,.28.2,1.08,2.26,1.08a2.88,2.88,0,0,0,1.73-.35,1.07,1.07,0,0,0,.55-.83C123.85,21,121.94,21,121.61,21Zm-.12-8.36a1.69,1.69,0,0,0,0,3.38,1.73,1.73,0,0,0,1.71-1.73A1.68,1.68,0,0,0,121.49,12.61Z"/><path class="cls-1" d="M131.53,24.76h-3.14l2.76-6-3.67-7.86h3.16l2,4.64,2.12-4.64h3.1Z"/><path class="cls-1" d="M60.87,41.47a10.25,10.25,0,0,1-5.14,1.31c-5.08,0-7.62-3.32-7.62-6.68S50.7,29.35,56,29.35a9.47,9.47,0,0,1,4.7,1.15v3a7.85,7.85,0,0,0-4.47-1.41c-2.73,0-4.74,1.57-4.74,4,0,2.57,2.19,4,4.64,4a7.53,7.53,0,0,0,3.47-.9l1.25-.71Z"/><path class="cls-1" d="M75.72,33.27a11.72,11.72,0,0,0-4.87-1.19,5.43,5.43,0,0,0-3,.74,3.84,3.84,0,0,0-1.78,3.36c0,2.48,2.07,3.88,4.32,3.88a6.72,6.72,0,0,0,2.34-.46V38.06H70.85V35.62H76V41a8.9,8.9,0,0,1-5.6,1.77c-4.2,0-7.76-2.49-7.76-6.71s3.28-6.72,7.9-6.72a12.64,12.64,0,0,1,5.14,1.08Z"/><path class="cls-1" d="M87.63,33.05a10,10,0,0,0-4.2-1.26c-1.92,0-2,.94-2,1.07,0,.79,1.28,1.25,3.16,1.92,1.65.6,3.61,1.59,3.61,4.12,0,3-3.17,3.88-5.12,3.88a10,10,0,0,1-4.63-1.27V38.69A8.46,8.46,0,0,0,83,40.32c.42,0,2,0,2-1.19,0-.86-.75-1.13-2.48-1.72-1.88-.65-4.26-1.57-4.26-4.34,0-2,1.67-3.72,5-3.72a10.43,10.43,0,0,1,4.43,1Z"/><path class="cls-1" d="M94.67,39.44h-5V36.89h5Z"/><path class="cls-1" d="M105.05,42.61H96.4v-.39c.08-.07,2-2.64,2.9-3.87s2.18-3.15,2.18-4.8a1.79,1.79,0,0,0-1.76-1.84,5.11,5.11,0,0,0-3.15,1.63V30.6a6.2,6.2,0,0,1,3.67-1.25c3.12,0,4.14,2,4.14,3.7,0,.87-.13,1.77-1.59,4.17-.63,1-1.73,2.41-2,2.72h4.22Z"/><path class="cls-1" d="M111.31,42.78a3.86,3.86,0,0,1-3.17-1.55c-1.23-1.6-1.32-4-1.32-5.16,0-5.55,2.68-6.72,4.45-6.72,1.42,0,4.41.85,4.41,6.66C115.68,41.24,113.38,42.78,111.31,42.78Zm0-11c-1.23,0-1.42,1.86-1.42,4.39,0,1.34,0,4.14,1.42,4.14.82,0,1.11-.92,1.23-1.55a23.09,23.09,0,0,0,.17-2.86C112.67,32.73,112.17,31.81,111.27,31.81Z"/><path class="cls-1" d="M126.23,42.61h-8.65v-.39c.08-.07,2-2.64,2.9-3.87s2.18-3.15,2.18-4.8a1.79,1.79,0,0,0-1.76-1.84,5.11,5.11,0,0,0-3.15,1.63V30.6a6.2,6.2,0,0,1,3.67-1.25c3.12,0,4.14,2,4.14,3.7,0,.87-.13,1.77-1.59,4.17-.64,1-1.73,2.41-2,2.72h4.22Z"/><path class="cls-1" d="M132.22,34.3a2.22,2.22,0,0,1,.76-.11,3.85,3.85,0,0,1,3.67,4.12,4.34,4.34,0,1,1-8.67-.17A9.77,9.77,0,0,1,129.76,33L132,29.35h3.22Zm.13,2.17c-.8,0-1.42.65-1.42,2s.67,1.9,1.44,1.9c1,0,1.46-1,1.46-2S133.33,36.47,132.35,36.47Z"/><path class="cls-2" d="M152.86,9.08v8a3.07,3.07,0,0,1-.9,2.34,3.65,3.65,0,0,1-4.71,0,3.07,3.07,0,0,1-.9-2.34h1.83a1.79,1.79,0,0,0,.37,1.16,1.51,1.51,0,0,0,2.12,0A1.74,1.74,0,0,0,151,17v-8Z"/><path class="cls-2" d="M163.72,11.37v8.74h-1.81v-1a2.93,2.93,0,0,1-1.12.85,3.49,3.49,0,0,1-1.47.31,3.91,3.91,0,0,1-1.85-.43,3.07,3.07,0,0,1-1.28-1.27,4.14,4.14,0,0,1-.47-2V11.37h1.79v4.87a2.55,2.55,0,0,0,.59,1.8,2.09,2.09,0,0,0,1.6.63,2.13,2.13,0,0,0,1.62-.63,2.55,2.55,0,0,0,.59-1.8V11.37Z"/><path class="cls-2" d="M167.91,8.37V20.11H166.1V8.37Z"/><path class="cls-2" d="M178.17,11.37,172.8,24.23h-1.87L172.71,20l-3.45-8.6h2L173.74,18l2.56-6.66Z"/><path class="cls-2" d="M147.61,39.45c1-.87,1.81-1.6,2.4-2.16a9.86,9.86,0,0,0,1.47-1.77,3.45,3.45,0,0,0,.59-1.85,2.27,2.27,0,0,0-.45-1.49,1.78,1.78,0,0,0-1.43-.54,1.82,1.82,0,0,0-1.45.6,2.48,2.48,0,0,0-.55,1.59h-1.74a3.89,3.89,0,0,1,6.44-2.78,3.41,3.41,0,0,1,1,2.55,4.43,4.43,0,0,1-.58,2.19,8.21,8.21,0,0,1-1.38,1.89c-.53.56-1.21,1.2-2,1.93l-.71.64h5v1.51h-7.72V40.44Z"/><path class="cls-2" d="M156.87,30.9a4.14,4.14,0,0,1,2.66-.83,4.25,4.25,0,0,1,1.92.4,2.75,2.75,0,0,1,1.22,1.08,2.87,2.87,0,0,1,.42,1.54,2.74,2.74,0,0,1-.53,1.68,2.52,2.52,0,0,1-1.25.94v.06a2.69,2.69,0,0,1,1.46,1,3.3,3.3,0,0,1,.52,1.93,3.22,3.22,0,0,1-.43,1.67,3,3,0,0,1-1.27,1.15,5,5,0,0,1-4.83-.46,3.25,3.25,0,0,1-1.18-2.54h1.74a2,2,0,0,0,.65,1.38,2.31,2.31,0,0,0,1.59.53,2,2,0,0,0,1.49-.53,1.89,1.89,0,0,0,.53-1.38,1.74,1.74,0,0,0-.71-1.57,3.91,3.91,0,0,0-2.17-.47h-.41V35h.43a3.94,3.94,0,0,0,2-.42,1.43,1.43,0,0,0,.68-1.31,1.57,1.57,0,0,0-.5-1.21,2,2,0,0,0-1.39-.45,1.94,1.94,0,0,0-1.38.45,1.79,1.79,0,0,0-.59,1.12h-1.76A3,3,0,0,1,156.87,30.9Z"/><path class="cls-2" d="M172.15,35.41v1.52h-6.52V35.41Z"/><path class="cls-2" d="M175.49,39.45c1-.87,1.81-1.6,2.4-2.16a9.86,9.86,0,0,0,1.47-1.77,3.45,3.45,0,0,0,.59-1.85,2.27,2.27,0,0,0-.45-1.49,1.78,1.78,0,0,0-1.43-.54,1.82,1.82,0,0,0-1.45.6,2.48,2.48,0,0,0-.55,1.59h-1.74a3.89,3.89,0,0,1,6.44-2.78,3.41,3.41,0,0,1,1,2.55,4.43,4.43,0,0,1-.58,2.19,8.21,8.21,0,0,1-1.38,1.89c-.53.56-1.21,1.2-2,1.93l-.71.64h5v1.51h-7.72V40.44Z"/><path class="cls-2" d="M183.42,39.5V38.14l5.34-7.66H191v7.45h1.48V39.5H191v2.41h-1.78V39.5Zm5.83-7.17-3.75,5.6h3.75Z"/><path class="cls-3" d="M142.19,8.64c.16,2.81.24,5.63.31,8.45s.06,5.63.09,8.44,0,5.64-.09,8.45-.14,5.64-.31,8.45c-.17-2.81-.25-5.63-.31-8.45s-.06-5.63-.1-8.45,0-5.63.1-8.44S142,11.45,142.19,8.64Z"/><path class="cls-4" d="M21.11,33.47c-2.35,0-2.95,1.11-1.74,3.25a2.37,2.37,0,0,1-.9,3.5,2.28,2.28,0,0,1-3.21-.94,2.25,2.25,0,0,1,1.18-3.38,2,2,0,0,0,1.37-2.62,3.39,3.39,0,0,0-3-1.77A2,2,0,0,0,13.21,34a2.2,2.2,0,0,1-2.29,2.74,2.28,2.28,0,0,1-2.46-2.43A2.22,2.22,0,0,1,11.2,32a2.05,2.05,0,0,0,2.49-1.6,3.42,3.42,0,0,0-1.76-3A2,2,0,0,0,9.3,28.74,2.29,2.29,0,0,1,5.92,30,2.41,2.41,0,0,1,5,26.59,2.31,2.31,0,0,1,8.56,26a2,2,0,0,0,2.94-.17,3.39,3.39,0,0,0,0-3.48,2.06,2.06,0,0,0-3-.05A2.27,2.27,0,0,1,5,21.53a2.26,2.26,0,0,1,.83-3.23,2.25,2.25,0,0,1,3.43,1.05A2.08,2.08,0,0,0,12,20.79a3.34,3.34,0,0,0,1.69-3,2.14,2.14,0,0,0-2.56-1.54,2.24,2.24,0,0,1-2.67-2.39,2.25,2.25,0,0,1,2.35-2.36,2.23,2.23,0,0,1,2.41,2.64,2.11,2.11,0,0,0,1.72,2.6A3.69,3.69,0,0,0,17.77,15c.48-.93,0-2.15-1.43-2.72A2.18,2.18,0,0,1,15.22,9a2.34,2.34,0,0,1,3.34-1c1.3.83,1.76,2.12.81,3.33s-.83,2.43,0,3.14a3.44,3.44,0,0,0,3.35.09,1.82,1.82,0,0,0,.45-2.71,2.6,2.6,0,0,1-.63-2.34,2.42,2.42,0,0,1,4.71,0,2.25,2.25,0,0,1-1.16,2.65c-.6.35-1.42.39-1.5,1.33,0,.61-.77,1.41,0,1.76,1,.47,1.84,1.81,3,1.32A2.07,2.07,0,0,0,29,14.34c-.25-1.83.76-2.9,2.34-2.86a2.23,2.23,0,0,1,2.4,2.31A2.31,2.31,0,0,1,31,16.21a2.06,2.06,0,0,0-2.38,1.53,3.39,3.39,0,0,0,1.68,3,2,2,0,0,0,2.64-1.27,2.31,2.31,0,0,1,3.36-1.31,2.41,2.41,0,0,1,1,3.36,2.36,2.36,0,0,1-3.68.58,2.05,2.05,0,0,0-2.82.17,3.56,3.56,0,0,0,0,3.52,2,2,0,0,0,2.79.25c1.49-1.06,2.9-.78,3.7.51A2.39,2.39,0,0,1,36.32,30c-1.31.75-2.74.28-3.48-1.39a2,2,0,0,0-2.52-1.18,3.45,3.45,0,0,0-1.74,3A2,2,0,0,0,30.89,32c1.83-.16,2.9.83,2.9,2.35a2.35,2.35,0,0,1-2.54,2.38c-1.54-.06-2.44-1.1-2.2-3,.15-1.24-.77-1.56-1.34-2.16s-1.06.17-1.51.43c-2.57,1.49-2.55,2.31,0,4A2.23,2.23,0,0,1,27,39.27a2.21,2.21,0,0,1-3.19.94,2.3,2.3,0,0,1-1.09-3.16,2.27,2.27,0,0,1,.19-.34C24.08,34.56,23.49,33.47,21.11,33.47Z"/><path class="cls-5" d="M26.46,24a5.38,5.38,0,0,1-5.31,5.39A5.33,5.33,0,0,1,21,18.76,5.45,5.45,0,0,1,26.46,24Z"/><path class="cls-4" d="M21.13,26.82a2.73,2.73,0,1,1,0-5.45,2.73,2.73,0,1,1,0,5.45Z"/><circle class="cls-6" cx="4.85" cy="14.7" r="1.73"/><circle class="cls-6" cx="2.45" cy="24.11" r="1.73"/><circle class="cls-6" cx="5.08" cy="33.46" r="1.73"/><circle class="cls-6" cx="12.05" cy="40.23" r="1.73"/><circle class="cls-6" cx="21.47" cy="42.6" r="1.73"/><circle class="cls-6" cx="30.81" cy="39.92" r="1.73"/><circle class="cls-6" cx="37.55" cy="32.93" r="1.73"/><circle class="cls-6" cx="39.88" cy="23.5" r="1.73"/><circle class="cls-6" cx="37.17" cy="14.18" r="1.73"/><circle class="cls-6" cx="30.15" cy="7.46" r="1.73"/><circle class="cls-6" cx="20.71" cy="5.17" r="1.73"/><circle class="cls-6" cx="11.39" cy="7.92" r="1.73"/><rect class="cls-4" x="22.65" y="22.43" width="4.44" height="2.81"/></svg>